<svg xmlns="http://www.w3.org/2000/svg" xmlns:xlink="http://www.w3.org/1999/xlink" width="500" zoomAndPan="magnify" viewBox="0 0 375 374.999991" height="500" preserveAspectRatio="xMidYMid meet" version="1.0"><defs><g/><clipPath id="29ad710cab"><path d="M 187.5 0 C 83.945312 0 0 83.945312 0 187.5 C 0 291.054688 83.945312 375 187.5 375 C 291.054688 375 375 291.054688 375 187.5 C 375 83.945312 291.054688 0 187.5 0 Z M 187.5 0 " clip-rule="nonzero"/></clipPath></defs><g clip-path="url(#29ad710cab)"><rect x="-37.5" width="450" fill="#e6e6dd" y="-37.499999" height="449.999989" fill-opacity="1"/></g><g fill="#2b2b2b" fill-opacity="1"><g transform="translate(50.255129, 314.782417)"><g><path d="M 233.1875 -35.484375 C 234.394531 -34.273438 235 -32.945312 235 -31.5 C 235 -30.050781 234.394531 -28.722656 233.1875 -27.515625 C 222.082031 -16.171875 208.863281 -7.84375 193.53125 -2.53125 C 178.207031 2.78125 158.597656 5.4375 134.703125 5.4375 C 119.253906 5.4375 104.164062 2.539062 89.4375 -3.25 C 74.707031 -9.050781 61.425781 -17.5625 49.59375 -28.78125 C 37.769531 -40.007812 28.359375 -53.832031 21.359375 -70.25 C 14.359375 -86.664062 10.859375 -105.492188 10.859375 -126.734375 C 10.859375 -147.734375 14.359375 -166.441406 21.359375 -182.859375 C 28.359375 -199.273438 37.769531 -213.15625 49.59375 -224.5 C 61.425781 -235.84375 74.707031 -244.472656 89.4375 -250.390625 C 104.164062 -256.304688 119.253906 -259.265625 134.703125 -259.265625 C 151.597656 -259.265625 166.800781 -256.609375 180.3125 -251.296875 C 193.832031 -245.984375 204.335938 -238.5 211.828125 -228.84375 L 211.828125 -253.828125 C 211.828125 -255.515625 212.429688 -256.78125 213.640625 -257.625 C 214.847656 -258.46875 216.050781 -258.890625 217.25 -258.890625 C 218.457031 -258.890625 219.664062 -258.46875 220.875 -257.625 C 222.082031 -256.78125 222.6875 -255.515625 222.6875 -253.828125 L 222.6875 -194.4375 C 222.6875 -192.75 222.082031 -191.421875 220.875 -190.453125 C 219.664062 -189.492188 218.457031 -189.015625 217.25 -189.015625 C 216.050781 -189.015625 214.847656 -189.492188 213.640625 -190.453125 C 212.429688 -191.421875 211.828125 -192.75 211.828125 -194.4375 L 211.828125 -196.25 C 211.828125 -206.632812 208.566406 -215.804688 202.046875 -223.765625 C 195.523438 -231.734375 186.53125 -237.953125 175.0625 -242.421875 C 163.601562 -246.890625 150.148438 -249.125 134.703125 -249.125 C 123.835938 -249.125 113.515625 -247.734375 103.734375 -244.953125 C 93.960938 -242.179688 84.851562 -238.140625 76.40625 -232.828125 L 76.40625 -21 C 93.539062 -10.132812 112.972656 -4.703125 134.703125 -4.703125 C 157.628906 -4.703125 175.972656 -7.113281 189.734375 -11.9375 C 203.492188 -16.769531 215.566406 -24.5 225.953125 -35.125 C 227.148438 -36.332031 228.351562 -36.9375 229.5625 -36.9375 C 231.007812 -36.9375 232.21875 -36.453125 233.1875 -35.484375 Z M 21.71875 -126.734375 C 21.71875 -106.210938 25.640625 -87.441406 33.484375 -70.421875 C 41.335938 -53.410156 52.019531 -39.472656 65.53125 -28.609375 L 65.53125 -224.859375 C 52.257812 -213.992188 41.640625 -200.113281 33.671875 -183.21875 C 25.703125 -166.320312 21.71875 -147.492188 21.71875 -126.734375 Z M 21.71875 -126.734375 "/></g></g></g><g fill="#2b2b2b" fill-opacity="1"><g transform="translate(107.631648, 273.073501)"><g><path d="M 104.703125 -72.140625 C 108.722656 -67.472656 111.617188 -62.644531 113.390625 -57.65625 C 115.160156 -52.675781 116.046875 -47.613281 116.046875 -42.46875 C 116.046875 -34.425781 113.875 -26.90625 109.53125 -19.90625 C 105.1875 -12.90625 99.035156 -7.234375 91.078125 -2.890625 C 83.117188 1.453125 73.832031 3.625 63.21875 3.625 C 54.6875 3.625 46.195312 1.851562 37.75 -1.6875 C 29.3125 -5.226562 22.597656 -10.054688 17.609375 -16.171875 L 17.609375 0 C 17.609375 2.25 16.40625 3.375 14 3.375 C 11.582031 3.375 10.375 2.25 10.375 0 L 10.375 -42.46875 C 10.375 -44.71875 11.582031 -45.84375 14 -45.84375 C 16.40625 -45.84375 17.609375 -44.71875 17.609375 -42.46875 L 17.609375 -35.703125 C 17.609375 -30.078125 19.738281 -24.8125 24 -19.90625 C 28.269531 -15 33.859375 -11.054688 40.765625 -8.078125 C 47.679688 -5.109375 55.164062 -3.625 63.21875 -3.625 C 70.445312 -3.625 76.957031 -4.785156 82.75 -7.109375 C 88.539062 -9.441406 93.445312 -12.539062 97.46875 -16.40625 L 29.4375 -97.46875 C 19.144531 -109.695312 14 -121.679688 14 -133.421875 C 14 -140.816406 15.925781 -147.445312 19.78125 -153.3125 C 23.644531 -159.1875 29.15625 -163.851562 36.3125 -167.3125 C 43.46875 -170.769531 51.953125 -172.5 61.765625 -172.5 C 68.835938 -172.5 75.75 -170.972656 82.5 -167.921875 C 89.257812 -164.867188 94.734375 -160.765625 98.921875 -155.609375 L 98.921875 -168.890625 C 98.921875 -171.140625 100.125 -172.265625 102.53125 -172.265625 C 104.945312 -172.265625 106.15625 -171.140625 106.15625 -168.890625 L 106.15625 -133.421875 C 106.15625 -132.453125 105.789062 -131.601562 105.0625 -130.875 C 104.34375 -130.15625 103.5 -129.796875 102.53125 -129.796875 C 101.570312 -129.796875 100.726562 -130.15625 100 -130.875 C 99.28125 -131.601562 98.921875 -132.453125 98.921875 -133.421875 L 98.921875 -137.28125 C 98.921875 -141.945312 97.148438 -146.410156 93.609375 -150.671875 C 90.066406 -154.929688 85.484375 -158.425781 79.859375 -161.15625 C 74.234375 -163.894531 68.203125 -165.265625 61.765625 -165.265625 C 55.816406 -165.265625 50.425781 -164.539062 45.59375 -163.09375 C 40.769531 -161.644531 36.585938 -159.632812 33.046875 -157.0625 Z M 21.234375 -133.421875 C 21.234375 -123.609375 25.816406 -113.15625 34.984375 -102.0625 L 102.296875 -21.953125 C 106.640625 -28.390625 108.8125 -35.226562 108.8125 -42.46875 C 108.8125 -46.644531 108.003906 -50.90625 106.390625 -55.25 C 104.785156 -59.59375 102.375 -63.691406 99.15625 -67.546875 L 27.75 -152.234375 C 23.40625 -146.609375 21.234375 -140.335938 21.234375 -133.421875 Z M 21.234375 -133.421875 "/></g></g></g></svg>