<svg xmlns="http://www.w3.org/2000/svg" xmlns:xlink="http://www.w3.org/1999/xlink" width="500" zoomAndPan="magnify" viewBox="0 0 375 374.999991" height="500" preserveAspectRatio="xMidYMid meet" version="1.0"><defs><g/></defs><g fill="#e6e6dd" fill-opacity="1"><g transform="translate(77.26824, 226.413807)"><g><path d="M 195.34375 -29.71875 C 196.351562 -28.707031 196.859375 -27.597656 196.859375 -26.390625 C 196.859375 -25.171875 196.351562 -24.054688 195.34375 -23.046875 C 186.039062 -13.546875 174.96875 -6.570312 162.125 -2.125 C 149.289062 2.320312 132.863281 4.546875 112.84375 4.546875 C 99.894531 4.546875 87.253906 2.117188 74.921875 -2.734375 C 62.585938 -7.585938 51.460938 -14.710938 41.546875 -24.109375 C 31.640625 -33.515625 23.753906 -45.09375 17.890625 -58.84375 C 12.023438 -72.59375 9.09375 -88.367188 9.09375 -106.171875 C 9.09375 -123.753906 12.023438 -139.421875 17.890625 -153.171875 C 23.753906 -166.929688 31.640625 -178.5625 41.546875 -188.0625 C 51.460938 -197.5625 62.585938 -204.789062 74.921875 -209.75 C 87.253906 -214.707031 99.894531 -217.1875 112.84375 -217.1875 C 127 -217.1875 139.738281 -214.960938 151.0625 -210.515625 C 162.382812 -206.066406 171.179688 -199.796875 177.453125 -191.703125 L 177.453125 -212.640625 C 177.453125 -214.046875 177.957031 -215.101562 178.96875 -215.8125 C 179.976562 -216.519531 180.988281 -216.875 182 -216.875 C 183.007812 -216.875 184.019531 -216.519531 185.03125 -215.8125 C 186.039062 -215.101562 186.546875 -214.046875 186.546875 -212.640625 L 186.546875 -162.890625 C 186.546875 -161.472656 186.039062 -160.359375 185.03125 -159.546875 C 184.019531 -158.742188 183.007812 -158.34375 182 -158.34375 C 180.988281 -158.34375 179.976562 -158.742188 178.96875 -159.546875 C 177.957031 -160.359375 177.453125 -161.472656 177.453125 -162.890625 L 177.453125 -164.40625 C 177.453125 -173.101562 174.71875 -180.785156 169.25 -187.453125 C 163.789062 -194.128906 156.257812 -199.335938 146.65625 -203.078125 C 137.050781 -206.816406 125.78125 -208.6875 112.84375 -208.6875 C 103.738281 -208.6875 95.09375 -207.523438 86.90625 -205.203125 C 78.71875 -202.878906 71.082031 -199.492188 64 -195.046875 L 64 -17.59375 C 78.351562 -8.488281 94.632812 -3.9375 112.84375 -3.9375 C 132.050781 -3.9375 147.414062 -5.957031 158.9375 -10 C 170.46875 -14.050781 180.582031 -20.523438 189.28125 -29.421875 C 190.289062 -30.429688 191.300781 -30.9375 192.3125 -30.9375 C 193.519531 -30.9375 194.53125 -30.53125 195.34375 -29.71875 Z M 18.203125 -106.171875 C 18.203125 -88.972656 21.488281 -73.242188 28.0625 -58.984375 C 34.632812 -44.734375 43.582031 -33.0625 54.90625 -23.96875 L 54.90625 -188.359375 C 43.78125 -179.265625 34.878906 -167.640625 28.203125 -153.484375 C 21.535156 -139.328125 18.203125 -123.554688 18.203125 -106.171875 Z M 18.203125 -106.171875 "/></g></g></g><g fill="#e6e6dd" fill-opacity="1"><g transform="translate(125.326506, 191.897284)"><g><path d="M 87.71875 -60.4375 C 91.082031 -56.519531 93.503906 -52.472656 94.984375 -48.296875 C 96.472656 -44.117188 97.21875 -39.878906 97.21875 -35.578125 C 97.21875 -28.835938 95.394531 -22.535156 91.75 -16.671875 C 88.113281 -10.804688 82.960938 -6.054688 76.296875 -2.421875 C 69.628906 1.210938 61.847656 3.03125 52.953125 3.03125 C 45.804688 3.03125 38.695312 1.550781 31.625 -1.40625 C 24.550781 -4.375 18.925781 -8.421875 14.75 -13.546875 L 14.75 0 C 14.75 1.882812 13.738281 2.828125 11.71875 2.828125 C 9.695312 2.828125 8.6875 1.882812 8.6875 0 L 8.6875 -35.578125 C 8.6875 -37.460938 9.695312 -38.40625 11.71875 -38.40625 C 13.738281 -38.40625 14.75 -37.460938 14.75 -35.578125 L 14.75 -29.90625 C 14.75 -25.195312 16.535156 -20.785156 20.109375 -16.671875 C 23.679688 -12.566406 28.363281 -9.265625 34.15625 -6.765625 C 39.945312 -4.273438 46.210938 -3.03125 52.953125 -3.03125 C 59.015625 -3.03125 64.46875 -4.003906 69.3125 -5.953125 C 74.164062 -7.910156 78.28125 -10.507812 81.65625 -13.75 L 24.65625 -81.65625 C 16.03125 -91.894531 11.71875 -101.929688 11.71875 -111.765625 C 11.71875 -117.960938 13.332031 -123.519531 16.5625 -128.4375 C 19.800781 -133.351562 24.414062 -137.257812 30.40625 -140.15625 C 36.40625 -143.0625 43.515625 -144.515625 51.734375 -144.515625 C 57.660156 -144.515625 63.453125 -143.234375 69.109375 -140.671875 C 74.773438 -138.109375 79.359375 -134.671875 82.859375 -130.359375 L 82.859375 -141.46875 C 82.859375 -143.363281 83.867188 -144.3125 85.890625 -144.3125 C 87.910156 -144.3125 88.921875 -143.363281 88.921875 -141.46875 L 88.921875 -111.765625 C 88.921875 -110.953125 88.617188 -110.242188 88.015625 -109.640625 C 87.410156 -109.035156 86.703125 -108.734375 85.890625 -108.734375 C 85.085938 -108.734375 84.378906 -109.035156 83.765625 -109.640625 C 83.160156 -110.242188 82.859375 -110.953125 82.859375 -111.765625 L 82.859375 -115 C 82.859375 -118.90625 81.375 -122.644531 78.40625 -126.21875 C 75.445312 -129.789062 71.609375 -132.71875 66.890625 -135 C 62.179688 -137.289062 57.128906 -138.4375 51.734375 -138.4375 C 46.753906 -138.4375 42.242188 -137.832031 38.203125 -136.625 C 34.160156 -135.414062 30.65625 -133.734375 27.6875 -131.578125 Z M 17.78125 -111.765625 C 17.78125 -103.546875 21.625 -94.789062 29.3125 -85.5 L 85.6875 -18.390625 C 89.332031 -23.773438 91.15625 -29.503906 91.15625 -35.578125 C 91.15625 -39.078125 90.476562 -42.644531 89.125 -46.28125 C 87.78125 -49.914062 85.757812 -53.351562 83.0625 -56.59375 L 23.25 -127.53125 C 19.601562 -122.8125 17.78125 -117.554688 17.78125 -111.765625 Z M 17.78125 -111.765625 "/></g></g></g><g fill="#e6e6dd" fill-opacity="1"><g transform="translate(70.348217, 322.796323)"><g><path d="M 21.0625 0.703125 C 15.507812 0.703125 11.066406 -1.035156 7.734375 -4.515625 C 4.410156 -7.992188 2.75 -12.769531 2.75 -18.84375 L 2.75 -53.890625 C 2.75 -61.441406 4.25 -67.132812 7.25 -70.96875 C 10.257812 -74.800781 14.976562 -76.71875 21.40625 -76.71875 C 27.007812 -76.71875 31.519531 -75.179688 34.9375 -72.109375 C 38.363281 -69.046875 40.078125 -64.625 40.078125 -58.84375 L 40.078125 -45.75 L 24.953125 -45.75 L 24.953125 -56.984375 C 24.953125 -59.160156 24.6875 -60.660156 24.15625 -61.484375 C 23.625 -62.316406 22.707031 -62.734375 21.40625 -62.734375 C 20.050781 -62.734375 19.125 -62.257812 18.625 -61.3125 C 18.125 -60.375 17.875 -58.988281 17.875 -57.15625 L 17.875 -19.03125 C 17.875 -17.019531 18.164062 -15.554688 18.75 -14.640625 C 19.34375 -13.722656 20.226562 -13.265625 21.40625 -13.265625 C 23.769531 -13.265625 24.953125 -15.1875 24.953125 -19.03125 L 24.953125 -32.734375 L 40.265625 -32.734375 L 40.265625 -18.40625 C 40.265625 -5.664062 33.863281 0.703125 21.0625 0.703125 Z M 21.0625 0.703125 "/></g></g></g><g fill="#e6e6dd" fill-opacity="1"><g transform="translate(134.144636, 322.796323)"><g><path d="M 21.5 0.703125 C 15.363281 0.703125 10.703125 -1.164062 7.515625 -4.90625 C 4.335938 -8.65625 2.75 -13.921875 2.75 -20.703125 L 2.75 -56.890625 C 2.75 -63.441406 4.335938 -68.382812 7.515625 -71.71875 C 10.703125 -75.050781 15.363281 -76.71875 21.5 -76.71875 C 27.632812 -76.71875 32.296875 -75.050781 35.484375 -71.71875 C 38.671875 -68.382812 40.265625 -63.441406 40.265625 -56.890625 L 40.265625 -20.703125 C 40.265625 -13.859375 38.671875 -8.578125 35.484375 -4.859375 C 32.296875 -1.148438 27.632812 0.703125 21.5 0.703125 Z M 21.5 -13.265625 C 22.851562 -13.265625 23.765625 -13.851562 24.234375 -15.03125 C 24.710938 -16.21875 24.953125 -17.875 24.953125 -20 L 24.953125 -57.15625 C 24.953125 -58.8125 24.726562 -60.15625 24.28125 -61.1875 C 23.84375 -62.21875 22.945312 -62.734375 21.59375 -62.734375 C 19.050781 -62.734375 17.78125 -60.816406 17.78125 -56.984375 L 17.78125 -19.90625 C 17.78125 -17.726562 18.046875 -16.078125 18.578125 -14.953125 C 19.109375 -13.828125 20.082031 -13.265625 21.5 -13.265625 Z M 21.5 -13.265625 "/></g></g></g><g fill="#e6e6dd" fill-opacity="1"><g transform="translate(199.002784, 322.796323)"><g><path d="M 21.40625 0.703125 C 14.507812 0.703125 9.523438 -1.003906 6.453125 -4.421875 C 3.390625 -7.847656 1.859375 -13.363281 1.859375 -20.96875 L 1.859375 -28.40625 L 16.8125 -28.40625 L 16.8125 -18.9375 C 16.8125 -15.15625 18.019531 -13.265625 20.4375 -13.265625 C 21.789062 -13.265625 22.734375 -13.660156 23.265625 -14.453125 C 23.796875 -15.253906 24.0625 -16.601562 24.0625 -18.5 C 24.0625 -20.96875 23.765625 -23.015625 23.171875 -24.640625 C 22.585938 -26.265625 21.835938 -27.617188 20.921875 -28.703125 C 20.015625 -29.796875 18.378906 -31.492188 16.015625 -33.796875 L 9.46875 -40.34375 C 4.394531 -45.300781 1.859375 -50.789062 1.859375 -56.8125 C 1.859375 -63.300781 3.347656 -68.238281 6.328125 -71.625 C 9.304688 -75.019531 13.65625 -76.71875 19.375 -76.71875 C 26.21875 -76.71875 31.144531 -74.898438 34.15625 -71.265625 C 37.164062 -67.640625 38.671875 -61.960938 38.671875 -54.234375 L 23.1875 -54.234375 L 23.09375 -59.46875 C 23.09375 -60.46875 22.8125 -61.257812 22.25 -61.84375 C 21.6875 -62.4375 20.90625 -62.734375 19.90625 -62.734375 C 18.726562 -62.734375 17.84375 -62.40625 17.25 -61.75 C 16.664062 -61.101562 16.375 -60.222656 16.375 -59.109375 C 16.375 -56.628906 17.785156 -54.0625 20.609375 -51.40625 L 29.46875 -42.921875 C 31.53125 -40.910156 33.238281 -39.003906 34.59375 -37.203125 C 35.945312 -35.410156 37.035156 -33.289062 37.859375 -30.84375 C 38.691406 -28.394531 39.109375 -25.488281 39.109375 -22.125 C 39.109375 -14.632812 37.734375 -8.957031 34.984375 -5.09375 C 32.242188 -1.226562 27.71875 0.703125 21.40625 0.703125 Z M 21.40625 0.703125 "/></g></g></g><g fill="#e6e6dd" fill-opacity="1"><g transform="translate(261.648991, 322.796323)"><g><path d="M 21.5 0.703125 C 15.363281 0.703125 10.703125 -1.164062 7.515625 -4.90625 C 4.335938 -8.65625 2.75 -13.921875 2.75 -20.703125 L 2.75 -56.890625 C 2.75 -63.441406 4.335938 -68.382812 7.515625 -71.71875 C 10.703125 -75.050781 15.363281 -76.71875 21.5 -76.71875 C 27.632812 -76.71875 32.296875 -75.050781 35.484375 -71.71875 C 38.671875 -68.382812 40.265625 -63.441406 40.265625 -56.890625 L 40.265625 -20.703125 C 40.265625 -13.859375 38.671875 -8.578125 35.484375 -4.859375 C 32.296875 -1.148438 27.632812 0.703125 21.5 0.703125 Z M 21.5 -13.265625 C 22.851562 -13.265625 23.765625 -13.851562 24.234375 -15.03125 C 24.710938 -16.21875 24.953125 -17.875 24.953125 -20 L 24.953125 -57.15625 C 24.953125 -58.8125 24.726562 -60.15625 24.28125 -61.1875 C 23.84375 -62.21875 22.945312 -62.734375 21.59375 -62.734375 C 19.050781 -62.734375 17.78125 -60.816406 17.78125 -56.984375 L 17.78125 -19.90625 C 17.78125 -17.726562 18.046875 -16.078125 18.578125 -14.953125 C 19.109375 -13.828125 20.082031 -13.265625 21.5 -13.265625 Z M 21.5 -13.265625 "/></g></g></g><g fill="#e6e6dd" fill-opacity="1"><g transform="translate(146.38261, 352.357074)"><g><path d="M 5.125 0.125 C 4.332031 0.125 3.625 -0.015625 3 -0.296875 C 2.375 -0.578125 1.882812 -0.96875 1.53125 -1.46875 C 1.175781 -1.96875 0.992188 -2.546875 0.984375 -3.203125 L 2.65625 -3.203125 C 2.707031 -2.640625 2.9375 -2.164062 3.34375 -1.78125 C 3.75 -1.394531 4.34375 -1.203125 5.125 -1.203125 C 5.875 -1.203125 6.460938 -1.390625 6.890625 -1.765625 C 7.328125 -2.140625 7.546875 -2.617188 7.546875 -3.203125 C 7.546875 -3.660156 7.414062 -4.03125 7.15625 -4.3125 C 6.90625 -4.601562 6.585938 -4.820312 6.203125 -4.96875 C 5.828125 -5.125 5.320312 -5.285156 4.6875 -5.453125 C 3.894531 -5.660156 3.257812 -5.867188 2.78125 -6.078125 C 2.300781 -6.285156 1.890625 -6.609375 1.546875 -7.046875 C 1.210938 -7.492188 1.046875 -8.085938 1.046875 -8.828125 C 1.046875 -9.484375 1.210938 -10.0625 1.546875 -10.5625 C 1.878906 -11.070312 2.347656 -11.460938 2.953125 -11.734375 C 3.554688 -12.015625 4.25 -12.15625 5.03125 -12.15625 C 6.15625 -12.15625 7.078125 -11.875 7.796875 -11.3125 C 8.515625 -10.75 8.914062 -10.003906 9 -9.078125 L 7.28125 -9.078125 C 7.226562 -9.535156 6.988281 -9.9375 6.5625 -10.28125 C 6.132812 -10.632812 5.570312 -10.8125 4.875 -10.8125 C 4.21875 -10.8125 3.679688 -10.640625 3.265625 -10.296875 C 2.859375 -9.960938 2.65625 -9.492188 2.65625 -8.890625 C 2.65625 -8.453125 2.773438 -8.09375 3.015625 -7.8125 C 3.265625 -7.539062 3.570312 -7.332031 3.9375 -7.1875 C 4.300781 -7.039062 4.804688 -6.878906 5.453125 -6.703125 C 6.242188 -6.484375 6.878906 -6.265625 7.359375 -6.046875 C 7.847656 -5.835938 8.265625 -5.507812 8.609375 -5.0625 C 8.953125 -4.625 9.125 -4.023438 9.125 -3.265625 C 9.125 -2.679688 8.96875 -2.128906 8.65625 -1.609375 C 8.351562 -1.097656 7.894531 -0.679688 7.28125 -0.359375 C 6.675781 -0.0351562 5.957031 0.125 5.125 0.125 Z M 5.125 0.125 "/></g></g></g><g fill="#e6e6dd" fill-opacity="1"><g transform="translate(160.740346, 352.357074)"><g><path d="M 8.71875 -12 L 8.71875 -10.734375 L 5.4375 -10.734375 L 5.4375 0 L 3.875 0 L 3.875 -10.734375 L 0.578125 -10.734375 L 0.578125 -12 Z M 8.71875 -12 "/></g></g></g><g fill="#e6e6dd" fill-opacity="1"><g transform="translate(174.306466, 352.357074)"><g><path d="M 2.859375 -12 L 2.859375 -4.40625 C 2.859375 -3.34375 3.117188 -2.550781 3.640625 -2.03125 C 4.160156 -1.507812 4.882812 -1.25 5.8125 -1.25 C 6.738281 -1.25 7.460938 -1.507812 7.984375 -2.03125 C 8.503906 -2.550781 8.765625 -3.34375 8.765625 -4.40625 L 8.765625 -12 L 10.328125 -12 L 10.328125 -4.421875 C 10.328125 -3.421875 10.125 -2.578125 9.71875 -1.890625 C 9.320312 -1.210938 8.78125 -0.707031 8.09375 -0.375 C 7.414062 -0.0390625 6.648438 0.125 5.796875 0.125 C 4.953125 0.125 4.1875 -0.0390625 3.5 -0.375 C 2.820312 -0.707031 2.285156 -1.210938 1.890625 -1.890625 C 1.492188 -2.578125 1.296875 -3.421875 1.296875 -4.421875 L 1.296875 -12 Z M 2.859375 -12 "/></g></g></g><g fill="#e6e6dd" fill-opacity="1"><g transform="translate(190.178622, 352.357074)"><g><path d="M 5.0625 -12 C 6.375 -12 7.507812 -11.753906 8.46875 -11.265625 C 9.425781 -10.773438 10.160156 -10.078125 10.671875 -9.171875 C 11.179688 -8.265625 11.4375 -7.195312 11.4375 -5.96875 C 11.4375 -4.738281 11.179688 -3.671875 10.671875 -2.765625 C 10.160156 -1.867188 9.425781 -1.179688 8.46875 -0.703125 C 7.507812 -0.234375 6.375 0 5.0625 0 L 1.328125 0 L 1.328125 -12 Z M 5.0625 -1.296875 C 6.613281 -1.296875 7.796875 -1.703125 8.609375 -2.515625 C 9.421875 -3.335938 9.828125 -4.488281 9.828125 -5.96875 C 9.828125 -7.46875 9.414062 -8.632812 8.59375 -9.46875 C 7.78125 -10.3125 6.601562 -10.734375 5.0625 -10.734375 L 2.890625 -10.734375 L 2.890625 -1.296875 Z M 5.0625 -1.296875 "/></g></g></g><g fill="#e6e6dd" fill-opacity="1"><g transform="translate(206.601467, 352.357074)"><g><path d="M 2.890625 -12 L 2.890625 0 L 1.328125 0 L 1.328125 -12 Z M 2.890625 -12 "/></g></g></g><g fill="#e6e6dd" fill-opacity="1"><g transform="translate(215.090879, 352.357074)"><g><path d="M 6.765625 0.125 C 5.648438 0.125 4.632812 -0.132812 3.71875 -0.65625 C 2.800781 -1.1875 2.070312 -1.914062 1.53125 -2.84375 C 1 -3.78125 0.734375 -4.835938 0.734375 -6.015625 C 0.734375 -7.179688 1 -8.234375 1.53125 -9.171875 C 2.070312 -10.109375 2.800781 -10.835938 3.71875 -11.359375 C 4.632812 -11.878906 5.648438 -12.140625 6.765625 -12.140625 C 7.890625 -12.140625 8.910156 -11.878906 9.828125 -11.359375 C 10.742188 -10.835938 11.46875 -10.109375 12 -9.171875 C 12.53125 -8.242188 12.796875 -7.191406 12.796875 -6.015625 C 12.796875 -4.828125 12.53125 -3.769531 12 -2.84375 C 11.46875 -1.914062 10.742188 -1.1875 9.828125 -0.65625 C 8.910156 -0.132812 7.890625 0.125 6.765625 0.125 Z M 6.765625 -1.234375 C 7.609375 -1.234375 8.363281 -1.425781 9.03125 -1.8125 C 9.695312 -2.207031 10.222656 -2.765625 10.609375 -3.484375 C 10.992188 -4.210938 11.1875 -5.054688 11.1875 -6.015625 C 11.1875 -6.972656 10.992188 -7.8125 10.609375 -8.53125 C 10.222656 -9.25 9.695312 -9.800781 9.03125 -10.1875 C 8.375 -10.582031 7.617188 -10.78125 6.765625 -10.78125 C 5.921875 -10.78125 5.164062 -10.582031 4.5 -10.1875 C 3.832031 -9.800781 3.304688 -9.25 2.921875 -8.53125 C 2.535156 -7.8125 2.34375 -6.972656 2.34375 -6.015625 C 2.34375 -5.054688 2.535156 -4.210938 2.921875 -3.484375 C 3.304688 -2.765625 3.832031 -2.207031 4.5 -1.8125 C 5.175781 -1.425781 5.929688 -1.234375 6.765625 -1.234375 Z M 6.765625 -1.234375 "/></g></g></g></svg>