<svg xmlns="http://www.w3.org/2000/svg" xmlns:xlink="http://www.w3.org/1999/xlink" width="500" zoomAndPan="magnify" viewBox="0 0 375 374.999991" height="500" preserveAspectRatio="xMidYMid meet" version="1.0"><defs><clipPath id="e5f8a322bf"><path d="M 187.5 0 C 83.945312 0 0 83.945312 0 187.5 C 0 291.054688 83.945312 375 187.5 375 C 291.054688 375 375 291.054688 375 187.5 C 375 83.945312 291.054688 0 187.5 0 Z M 187.5 0 " clip-rule="nonzero"/></clipPath><clipPath id="742d405009"><path d="M 101.523438 29.640625 L 237 29.640625 L 237 301 L 101.523438 301 Z M 101.523438 29.640625 " clip-rule="nonzero"/></clipPath></defs><g clip-path="url(#e5f8a322bf)"><rect x="-37.5" width="450" fill="#2b2b2b" y="-37.499999" height="449.999989" fill-opacity="1"/></g><g clip-path="url(#742d405009)"><path fill="#545454" d="M 171.667969 300.0625 C 171.667969 300.0625 101.523438 301.789062 101.523438 213.296875 C 101.523438 124.808594 215.910156 135.597656 204.046875 29.839844 C 204.046875 29.839844 256.402344 100.800781 227.519531 172.289062 C 210.519531 214.378906 137.136719 200.132812 171.667969 300.0625 " fill-opacity="1" fill-rule="nonzero"/></g><path fill="#a6a6a6" d="M 197.703125 312.78125 C 197.703125 312.78125 139.253906 314.214844 139.253906 240.476562 C 139.253906 166.742188 234.574219 175.734375 224.683594 87.609375 C 224.683594 87.609375 268.308594 146.738281 244.246094 206.308594 C 230.078125 241.382812 168.925781 229.511719 197.703125 312.78125 " fill-opacity="1" fill-rule="nonzero"/><path fill="#ffffff" d="M 216.832031 312.78125 C 216.832031 312.78125 175.933594 311.207031 179.183594 259.6875 C 182.4375 208.171875 248.640625 218.65625 245.613281 156.652344 C 245.613281 156.652344 273.488281 199.886719 254.050781 240.445312 C 242.605469 264.328125 200.40625 253.332031 216.832031 312.78125 " fill-opacity="1" fill-rule="nonzero"/></svg>